<svg xmlns="http://www.w3.org/2000/svg" viewBox="0 0 64 64" fill="none">
  <path fill="#2496ED" d="M23 27h6v6h-6zm8 0h6v6h-6zm8 0h6v6h-6zM15 35h6v6h-6zm8 0h6v6h-6zm8 0h6v6h-6zm8 0h6v6h-6zm8 0h6v6h-6zM23 43h6v6h-6zm8 0h6v6h-6zm8 0h6v6h-6zm8 0h6v6h-6z"/>
  <path fill="#2496ED" d="M57.8 33.4c-1.3-.9-4.3-1-6.1-.7-.3-2-1.2-3.7-2.8-4.9l-.9-.6-.6 1c-.9 1.6-1.1 3.7-.6 5.6-1 .5-2.6.8-4.5.8H13c0 5.4 2.8 9.4 8.3 11.9 3.6 1.6 8.5 2.1 14.6 1.7 5-.3 9.4-2.1 12.9-5.3 2.9-2.7 4.8-6 5.2-8.9 1.4.1 4.5.1 6.4-1.4.5-.4 2-1.9 1.4-3.3-.1-.3-.4-.6-.8-.9Z"/>
</svg>
